<svg width="20" height="20" viewBox="0 0 20 20" fill="none" xmlns="http://www.w3.org/2000/svg">
<path d="M10.7742 3C10.4891 3 10.2581 3.21952 10.2581 3.49032C10.2581 3.76112 10.4891 3.98065 10.7742 3.98065C14.1948 3.98065 16.9677 6.61494 16.9677 9.86452C16.9677 10.1353 17.1988 10.3548 17.4839 10.3548C17.7689 10.3548 18 10.1353 18 9.86452C18 6.07335 14.7649 3 10.7742 3Z" fill="#E4E5EA"/>
<path d="M4.1673 4.59966C4.45986 4.4568 4.97514 4.3844 5.27048 4.64579C5.63965 4.97253 6.20861 5.54529 6.59951 6.04502C6.9904 6.54475 7.53764 7.30588 7.61582 7.47502C7.694 7.64416 7.78086 8.24384 7.38997 8.60518C7.07726 8.89425 6.669 9.15104 6.50395 9.2433C6.35049 9.37143 6.09916 9.74764 6.32154 10.2274C6.59951 10.8271 7.19887 12.0033 8.23256 12.8798C9.26625 13.7562 10.3607 14.2175 11.047 14.3636C11.0906 14.3636 11.1467 14.3735 11.2116 14.385C11.4441 14.426 11.7906 14.4872 12.0894 14.1868C12.3951 13.8793 12.6742 13.5564 12.7756 13.4333C12.9348 13.2693 13.3975 12.9905 13.9743 13.1873C14.6953 13.4333 15.5205 13.9715 15.894 14.2252C16.1928 14.4282 16.8582 14.9095 17.1536 15.1247C17.3331 15.2554 17.6331 15.6445 17.3968 16.1549C17.1014 16.7931 15.8419 18.2 14.7127 18.2C14.2957 18.2 10.2652 17.116 6.70374 14.0561C4.42881 12.1015 2.47054 8.71025 2.13466 7.56728C2.00726 7.29563 1.8567 6.62625 2.27365 6.12191C2.6906 5.61756 3.15968 5.09169 4.1673 4.59966Z" fill="#E4E5EA"/>
<path d="M10.7742 6.92258C10.4891 6.92258 10.2581 7.1421 10.2581 7.4129C10.2581 7.6837 10.4891 7.90323 10.7742 7.90323C11.9144 7.90323 12.8387 8.78133 12.8387 9.86452C12.8387 10.1353 13.0698 10.3548 13.3548 10.3548C13.6399 10.3548 13.871 10.1353 13.871 9.86452C13.871 8.23973 12.4845 6.92258 10.7742 6.92258Z" fill="#E4E5EA"/>
<path d="M10.2581 5.45161C10.2581 5.18082 10.4891 4.96129 10.7742 4.96129C13.6247 4.96129 15.9355 7.15654 15.9355 9.86452C15.9355 10.1353 15.7044 10.3548 15.4194 10.3548C15.1343 10.3548 14.9032 10.1353 14.9032 9.86452C14.9032 7.69813 13.0546 5.94194 10.7742 5.94194C10.4891 5.94194 10.2581 5.72241 10.2581 5.45161Z" fill="#E4E5EA"/>
</svg>
